<svg xmlns="http://www.w3.org/2000/svg" viewBox="0 0 18.79 22.68"><defs><style>.cls-1{fill:#17365f;fill-rule:evenodd;}</style></defs><title>Asset 4</title><g id="Layer_2" data-name="Layer 2"><g id="Camada_1" data-name="Camada 1"><path class="cls-1" d="M8,2.72,3.58,8a4.86,4.86,0,0,0-1.16,3.15V16a2.54,2.54,0,0,1-.69,1.74L0,19.61l4.61,2.77,1.85-1.93A6.89,6.89,0,0,1,8,19.26l.82-.47a3.29,3.29,0,0,0,1.65-2.85V9.79a1.05,1.05,0,1,0-2.1,0v3.7a1.05,1.05,0,1,1-2.1,0V9.64A3.5,3.5,0,0,1,7.08,7.4L9.79,4.14a1.12,1.12,0,0,0-.13-1.57A1.15,1.15,0,0,0,8,2.72Z"/><path class="cls-1" d="M13.28,12.77a32.46,32.46,0,0,0,4.41,9.91l1.1-.76a31.11,31.11,0,0,1-4.22-9.5A47.4,47.4,0,0,1,13,0H11.65A48.73,48.73,0,0,0,13.28,12.77Z"/></g></g></svg>