<svg xmlns="http://www.w3.org/2000/svg" viewBox="0 0 20.81 22.68"><defs><style>.cls-1{fill:#17365f;fill-rule:evenodd;}</style></defs><title>Asset 12</title><g id="Layer_2" data-name="Layer 2"><g id="Camada_1" data-name="Camada 1"><path class="cls-1" d="M12.95,12a1.11,1.11,0,0,0-1,.58L9.68,16.83a1.11,1.11,0,0,0,0,1.06L12,22.1a1.11,1.11,0,0,0,1,.58h4.47a1.11,1.11,0,0,0,1-.58l2.29-4.21a1.11,1.11,0,0,0,0-1.06l-2.29-4.21a1.11,1.11,0,0,0-1-.58Zm4.25,8.06a.89.89,0,0,1-.77.45H13.93a.9.9,0,0,1-.77-.45l-1.32-2.3a.89.89,0,0,1,0-.89l1.32-2.3a.9.9,0,0,1,.77-.45h2.49a.89.89,0,0,1,.77.45l1.32,2.3a.89.89,0,0,1,0,.89Z"/><path class="cls-1" d="M8.84,6.25a1.11,1.11,0,0,0-1-.58H3.4a1.11,1.11,0,0,0-1,.58L.13,10.46a1.1,1.1,0,0,0,0,1.06l2.29,4.21a1.11,1.11,0,0,0,1,.58H7.86a1.11,1.11,0,0,0,1-.58l2.29-4.21a1.11,1.11,0,0,0,0-1.06Z"/><path class="cls-1" d="M17.41,10.63a1.11,1.11,0,0,0,1-.58l2.29-4.21a1.11,1.11,0,0,0,0-1.06L18.38.58a1.11,1.11,0,0,0-1-.58H12.95a1.11,1.11,0,0,0-1,.58L9.68,4.79a1.11,1.11,0,0,0,0,1.06L12,10.05a1.11,1.11,0,0,0,1,.58Z"/></g></g></svg>