<svg xmlns="http://www.w3.org/2000/svg" viewBox="0 0 15.12 22.68"><defs><style>.cls-1{fill:#17365f;fill-rule:evenodd;}</style></defs><title>Asset 3</title><g id="Layer_2" data-name="Layer 2"><g id="Camada_1" data-name="Camada 1"><path class="cls-1" d="M12.52,6.18a8.72,8.72,0,0,0-1.4-3.73C10.09.87,8.82,0,7.56,0S5,.87,4,2.46A8.71,8.71,0,0,0,2.6,6.18,7.39,7.39,0,0,0,0,11.8v10a.9.9,0,0,0,.92.87.9.9,0,0,0,.92-.87v-10A5.68,5.68,0,0,1,2.58,9v4.85c0,2.32,2.23,4.21,5,4.21s5-1.89,5-4.21V9a5.68,5.68,0,0,1,.73,2.8v10a.93.93,0,0,0,1.85,0v-10a7.39,7.39,0,0,0-2.6-5.61Zm-2,7.16a.93.93,0,0,1-1.85,0V6.61a.93.93,0,0,1,1.85,0Z"/></g></g></svg>