<svg xmlns="http://www.w3.org/2000/svg" viewBox="0 0 22.68 22.68"><defs><style>.cls-1{fill:#17365f;fill-rule:evenodd;}</style></defs><title>Asset 10</title><g id="Layer_2" data-name="Layer 2"><g id="Camada_1" data-name="Camada 1"><path class="cls-1" d="M11.34,0A11.34,11.34,0,1,0,22.68,11.34,11.34,11.34,0,0,0,11.34,0Zm8.28,10.18a.75.75,0,0,1,.75.75v.82a.75.75,0,0,1-.75.75h-.84v2.26H16.45v2H14.12V12.5H8.55v4.3H6.23v-2H3.91V12.5H3.06a.75.75,0,0,1-.75-.75v-.82a.75.75,0,0,1,.75-.75h.84V7.92H6.23v-2H8.56v4.3h5.56V5.88h2.33v2h2.33v2.26Z"/></g></g></svg>