<svg xmlns="http://www.w3.org/2000/svg" viewBox="0 0 21.47 22.68"><defs><style>.cls-1{fill:#17365f;fill-rule:evenodd;}</style></defs><title>Asset 11</title><g id="Layer_2" data-name="Layer 2"><g id="Camada_1" data-name="Camada 1"><path class="cls-1" d="M4.93,16.87a5.8,5.8,0,1,0,5.8-5.8,5.81,5.81,0,0,0-5.8,5.8Zm6.22-3.58a.54.54,0,0,1,.3.48v5.3h.73a.54.54,0,0,1,0,1.08H9.65a.54.54,0,0,1,0-1.08h.73v-4.2l-.74.58A.54.54,0,1,1,9,14.62l1.61-1.27A.54.54,0,0,1,11.15,13.3Z"/><path class="cls-1" d="M6.7,8.88,10.08,4,7.56.33A.77.77,0,0,0,6.93,0H.77A.77.77,0,0,0,.14,1.21L5.5,8.94a.77.77,0,0,0,.29,1.48h.92a6.87,6.87,0,0,1,8.06,0h.92A.77.77,0,0,0,16,8.94l5.36-7.73A.77.77,0,0,0,20.7,0H14.54a.77.77,0,0,0-.63.33L8,8.88Z"/></g></g></svg>