<svg xmlns="http://www.w3.org/2000/svg" viewBox="0 0 22.68 22.68"><defs><style>.cls-1{fill:#17365f;fill-rule:evenodd;}</style></defs><title>Asset 6</title><g id="Layer_2" data-name="Layer 2"><g id="Camada_1" data-name="Camada 1"><path class="cls-1" d="M18.43,0H4.25A4.25,4.25,0,0,0,0,4.25V18.43a4.25,4.25,0,0,0,4.25,4.25H18.43a4.25,4.25,0,0,0,4.25-4.25V4.25A4.25,4.25,0,0,0,18.43,0ZM15.7,10.47H7L3.49,6.11a10.11,10.11,0,0,1,7.85-3.49,10.11,10.11,0,0,1,7.85,3.49Z"/><polygon class="cls-1" points="9.09 9.59 7.9 4.37 11.36 9.59 9.09 9.59"/></g></g></svg>