<svg xmlns="http://www.w3.org/2000/svg" viewBox="0 0 18.43 22.68"><defs><style>.cls-1{fill:#17365f;fill-rule:evenodd;}</style></defs><title>Asset 5</title><g id="Layer_2" data-name="Layer 2"><g id="Camada_1" data-name="Camada 1"><path class="cls-1" d="M10.8,11.34C13.18,9.79,18.43,5.81,18.43.94a.94.94,0,1,0-1.89,0c0,4.32-5.66,8.13-7.32,9.16C7.54,9.08,1.89,5.27,1.89.94A.94.94,0,1,0,0,.94C0,5.81,5.26,9.79,7.63,11.34,5.26,12.89,0,16.86,0,21.73a.94.94,0,0,0,1.89,0c0-4.32,5.66-8.13,7.32-9.16,1.67,1,7.32,4.83,7.32,9.16a.94.94,0,0,0,1.89,0C18.43,16.86,13.17,12.89,10.8,11.34Z"/><path class="cls-1" d="M5.56,1.89h7.31a.94.94,0,0,0,0-1.89H5.56a.94.94,0,0,0,0,1.89Z"/><path class="cls-1" d="M7.16,4.73a.94.94,0,0,0,0,1.89h4.1a.94.94,0,1,0,0-1.89Z"/><path class="cls-1" d="M12.87,20.79H5.56a.94.94,0,0,0,0,1.89h7.31a.94.94,0,1,0,0-1.89Z"/><path class="cls-1" d="M11.26,17.94a.94.94,0,1,0,0-1.89H7.16a.94.94,0,1,0,0,1.89Z"/></g></g></svg>