<svg xmlns="http://www.w3.org/2000/svg" viewBox="0 0 19.65 22.68"><defs><style>.cls-1,.cls-2{fill:#17365f;}.cls-2{fill-rule:evenodd;}</style></defs><title>Asset 9</title><g id="Layer_2" data-name="Layer 2"><g id="Camada_1" data-name="Camada 1"><circle class="cls-1" cx="14.33" cy="3.57" r="3.57"/><path class="cls-2" d="M3.25,10.57c-.8.35-1.56.72-2.28,1.08C-1.22,12.75.7,16,2.88,14.93l.39-.18C3.2,13.37,3.17,12,3.25,10.57Z"/><path class="cls-2" d="M19.28,10.57a1.47,1.47,0,0,0-1-1.68c-3.15-1.35-6.76-1.06-10.19-.1a2.62,2.62,0,0,1,0,.42,18.31,18.31,0,0,0-.19,3.33l6.44-.23s.9.24.23.56l-7.19.34a23.52,23.52,0,0,1,.16-4.74C7.9,6.07,4.25,5,3.87,7.46a43.82,43.82,0,0,0-.07,9.36,1.92,1.92,0,0,0,2.85,1.64,25.47,25.47,0,0,0,2.67-1.93v6.16H19.44C19.79,14.93,19.7,14.17,19.28,10.57Z"/></g></g></svg>